<mxfile host="app.diagrams.net" agent="Mozilla/5.0 (Windows NT 10.0; Win64; x64; rv:131.0) Gecko/20100101 Firefox/131.0" version="24.8.2">
  <diagram name="ページ1" id="hydRpZzcmFtiIpv1gzoy">
    <mxGraphModel grid="1" page="1" gridSize="10" guides="1" tooltips="1" connect="1" arrows="1" fold="1" pageScale="1" pageWidth="827" pageHeight="1169" math="0" shadow="0">
      <root>
        <mxCell id="0" />
        <mxCell id="1" parent="0" />
        <mxCell id="nE2y1707VEOO2TmWXQGy-1" value="" style="rounded=0;whiteSpace=wrap;html=1;" vertex="1" parent="1">
          <mxGeometry y="80" width="1480" height="540" as="geometry" />
        </mxCell>
        <mxCell id="nE2y1707VEOO2TmWXQGy-2" value="Core" style="text;html=1;align=center;verticalAlign=middle;resizable=0;points=[];autosize=1;strokeColor=none;fillColor=none;" vertex="1" parent="1">
          <mxGeometry y="80" width="50" height="30" as="geometry" />
        </mxCell>
        <mxCell id="nE2y1707VEOO2TmWXQGy-53" style="edgeStyle=orthogonalEdgeStyle;rounded=0;orthogonalLoop=1;jettySize=auto;html=1;exitX=1;exitY=0.5;exitDx=0;exitDy=0;entryX=0;entryY=0.5;entryDx=0;entryDy=0;" edge="1" parent="1" source="nE2y1707VEOO2TmWXQGy-3" target="nE2y1707VEOO2TmWXQGy-10">
          <mxGeometry relative="1" as="geometry">
            <Array as="points">
              <mxPoint x="1190" y="380" />
              <mxPoint x="1190" y="353" />
            </Array>
          </mxGeometry>
        </mxCell>
        <mxCell id="nE2y1707VEOO2TmWXQGy-57" style="edgeStyle=orthogonalEdgeStyle;rounded=0;orthogonalLoop=1;jettySize=auto;html=1;exitX=1;exitY=0.5;exitDx=0;exitDy=0;entryX=0.5;entryY=1;entryDx=0;entryDy=0;" edge="1" parent="1" source="nE2y1707VEOO2TmWXQGy-3" target="nE2y1707VEOO2TmWXQGy-55">
          <mxGeometry relative="1" as="geometry">
            <Array as="points">
              <mxPoint x="1190" y="380" />
              <mxPoint x="1190" y="410" />
              <mxPoint x="1330" y="410" />
              <mxPoint x="1330" y="395" />
            </Array>
          </mxGeometry>
        </mxCell>
        <mxCell id="nE2y1707VEOO2TmWXQGy-65" style="edgeStyle=orthogonalEdgeStyle;rounded=0;orthogonalLoop=1;jettySize=auto;html=1;exitX=1;exitY=0.5;exitDx=0;exitDy=0;entryX=1;entryY=0;entryDx=0;entryDy=0;" edge="1" parent="1" source="nE2y1707VEOO2TmWXQGy-3" target="nE2y1707VEOO2TmWXQGy-6">
          <mxGeometry relative="1" as="geometry">
            <Array as="points">
              <mxPoint x="1190" y="380" />
              <mxPoint x="1190" y="410" />
              <mxPoint x="1310" y="410" />
            </Array>
          </mxGeometry>
        </mxCell>
        <mxCell id="nE2y1707VEOO2TmWXQGy-71" style="edgeStyle=orthogonalEdgeStyle;rounded=0;orthogonalLoop=1;jettySize=auto;html=1;exitX=1;exitY=0.25;exitDx=0;exitDy=0;entryX=0;entryY=0.5;entryDx=0;entryDy=0;" edge="1" parent="1" source="nE2y1707VEOO2TmWXQGy-3" target="nE2y1707VEOO2TmWXQGy-14">
          <mxGeometry relative="1" as="geometry">
            <Array as="points">
              <mxPoint x="1136" y="355" />
              <mxPoint x="1136" y="110" />
              <mxPoint x="160" y="110" />
            </Array>
          </mxGeometry>
        </mxCell>
        <mxCell id="nE2y1707VEOO2TmWXQGy-80" style="edgeStyle=orthogonalEdgeStyle;rounded=0;orthogonalLoop=1;jettySize=auto;html=1;exitX=1;exitY=0.5;exitDx=0;exitDy=0;entryX=0.75;entryY=1;entryDx=0;entryDy=0;" edge="1" parent="1" source="nE2y1707VEOO2TmWXQGy-3" target="nE2y1707VEOO2TmWXQGy-14">
          <mxGeometry relative="1" as="geometry">
            <Array as="points">
              <mxPoint x="1190" y="380" />
              <mxPoint x="1190" y="580" />
              <mxPoint x="120" y="580" />
              <mxPoint x="120" y="380" />
            </Array>
          </mxGeometry>
        </mxCell>
        <mxCell id="nE2y1707VEOO2TmWXQGy-3" value="" style="rounded=0;whiteSpace=wrap;html=1;" vertex="1" parent="1">
          <mxGeometry x="1053" y="330" width="63" height="100" as="geometry" />
        </mxCell>
        <mxCell id="nE2y1707VEOO2TmWXQGy-4" value="Alu" style="text;html=1;align=center;verticalAlign=middle;resizable=0;points=[];autosize=1;strokeColor=none;fillColor=none;" vertex="1" parent="1">
          <mxGeometry x="1053" y="330" width="40" height="30" as="geometry" />
        </mxCell>
        <mxCell id="nE2y1707VEOO2TmWXQGy-66" style="edgeStyle=orthogonalEdgeStyle;rounded=0;orthogonalLoop=1;jettySize=auto;html=1;exitX=0.75;exitY=0;exitDx=0;exitDy=0;entryX=0.75;entryY=1;entryDx=0;entryDy=0;" edge="1" parent="1" source="nE2y1707VEOO2TmWXQGy-5" target="nE2y1707VEOO2TmWXQGy-55">
          <mxGeometry relative="1" as="geometry">
            <Array as="points">
              <mxPoint x="1340" y="415" />
            </Array>
          </mxGeometry>
        </mxCell>
        <mxCell id="nE2y1707VEOO2TmWXQGy-5" value="" style="rounded=0;whiteSpace=wrap;html=1;" vertex="1" parent="1">
          <mxGeometry x="1250" y="560" width="120" height="60" as="geometry" />
        </mxCell>
        <mxCell id="nE2y1707VEOO2TmWXQGy-6" value="IOBus" style="text;html=1;align=center;verticalAlign=middle;whiteSpace=wrap;rounded=0;" vertex="1" parent="1">
          <mxGeometry x="1250" y="560" width="60" height="30" as="geometry" />
        </mxCell>
        <mxCell id="nE2y1707VEOO2TmWXQGy-25" style="edgeStyle=orthogonalEdgeStyle;rounded=0;orthogonalLoop=1;jettySize=auto;html=1;exitX=1;exitY=0.5;exitDx=0;exitDy=0;entryX=0;entryY=0.5;entryDx=0;entryDy=0;" edge="1" parent="1" source="nE2y1707VEOO2TmWXQGy-7" target="nE2y1707VEOO2TmWXQGy-24">
          <mxGeometry relative="1" as="geometry" />
        </mxCell>
        <mxCell id="nE2y1707VEOO2TmWXQGy-7" value="imem" style="rounded=0;whiteSpace=wrap;html=1;" vertex="1" parent="1">
          <mxGeometry x="380" y="300" width="60" height="110" as="geometry" />
        </mxCell>
        <mxCell id="nE2y1707VEOO2TmWXQGy-56" style="edgeStyle=orthogonalEdgeStyle;rounded=0;orthogonalLoop=1;jettySize=auto;html=1;exitX=1;exitY=0.5;exitDx=0;exitDy=0;entryX=0.25;entryY=1;entryDx=0;entryDy=0;" edge="1" parent="1" source="nE2y1707VEOO2TmWXQGy-10" target="nE2y1707VEOO2TmWXQGy-55">
          <mxGeometry relative="1" as="geometry">
            <Array as="points">
              <mxPoint x="1340" y="353" />
              <mxPoint x="1340" y="375" />
            </Array>
          </mxGeometry>
        </mxCell>
        <mxCell id="nE2y1707VEOO2TmWXQGy-10" value="dmem" style="rounded=0;whiteSpace=wrap;html=1;" vertex="1" parent="1">
          <mxGeometry x="1250" y="305" width="60" height="95" as="geometry" />
        </mxCell>
        <mxCell id="nE2y1707VEOO2TmWXQGy-13" style="edgeStyle=orthogonalEdgeStyle;rounded=0;orthogonalLoop=1;jettySize=auto;html=1;exitX=1;exitY=0.5;exitDx=0;exitDy=0;entryX=0;entryY=0.5;entryDx=0;entryDy=0;" edge="1" parent="1" source="nE2y1707VEOO2TmWXQGy-12" target="nE2y1707VEOO2TmWXQGy-7">
          <mxGeometry relative="1" as="geometry" />
        </mxCell>
        <mxCell id="nE2y1707VEOO2TmWXQGy-78" style="edgeStyle=orthogonalEdgeStyle;rounded=0;orthogonalLoop=1;jettySize=auto;html=1;exitX=1;exitY=0.5;exitDx=0;exitDy=0;entryX=0;entryY=0;entryDx=0;entryDy=0;" edge="1" parent="1" source="nE2y1707VEOO2TmWXQGy-12" target="nE2y1707VEOO2TmWXQGy-77">
          <mxGeometry relative="1" as="geometry">
            <Array as="points">
              <mxPoint x="350" y="355" />
              <mxPoint x="350" y="290" />
              <mxPoint x="10" y="290" />
              <mxPoint x="10" y="380" />
            </Array>
          </mxGeometry>
        </mxCell>
        <mxCell id="nE2y1707VEOO2TmWXQGy-12" value="pc" style="rounded=0;whiteSpace=wrap;html=1;" vertex="1" parent="1">
          <mxGeometry x="250" y="335" width="80" height="40" as="geometry" />
        </mxCell>
        <mxCell id="nE2y1707VEOO2TmWXQGy-20" style="edgeStyle=orthogonalEdgeStyle;rounded=0;orthogonalLoop=1;jettySize=auto;html=1;exitX=0.5;exitY=0;exitDx=0;exitDy=0;entryX=0;entryY=0.5;entryDx=0;entryDy=0;" edge="1" parent="1" source="nE2y1707VEOO2TmWXQGy-14" target="nE2y1707VEOO2TmWXQGy-12">
          <mxGeometry relative="1" as="geometry">
            <Array as="points">
              <mxPoint x="180" y="355" />
            </Array>
          </mxGeometry>
        </mxCell>
        <mxCell id="nE2y1707VEOO2TmWXQGy-14" value="Mux" style="shape=trapezoid;perimeter=trapezoidPerimeter;whiteSpace=wrap;html=1;fixedSize=1;direction=south;" vertex="1" parent="1">
          <mxGeometry x="140" y="320" width="40" height="80" as="geometry" />
        </mxCell>
        <mxCell id="nE2y1707VEOO2TmWXQGy-73" style="edgeStyle=orthogonalEdgeStyle;rounded=0;orthogonalLoop=1;jettySize=auto;html=1;exitX=1;exitY=0.5;exitDx=0;exitDy=0;entryX=0.25;entryY=1;entryDx=0;entryDy=0;" edge="1" parent="1" source="nE2y1707VEOO2TmWXQGy-15" target="nE2y1707VEOO2TmWXQGy-14">
          <mxGeometry relative="1" as="geometry" />
        </mxCell>
        <mxCell id="nE2y1707VEOO2TmWXQGy-15" value="&lt;font style=&quot;font-size: 29px;&quot;&gt;+&lt;/font&gt;" style="ellipse;whiteSpace=wrap;html=1;aspect=fixed;" vertex="1" parent="1">
          <mxGeometry x="80" y="322.5" width="35" height="35" as="geometry" />
        </mxCell>
        <mxCell id="nE2y1707VEOO2TmWXQGy-16" style="edgeStyle=orthogonalEdgeStyle;rounded=0;orthogonalLoop=1;jettySize=auto;html=1;exitX=1;exitY=0.5;exitDx=0;exitDy=0;entryX=-0.029;entryY=0.286;entryDx=0;entryDy=0;entryPerimeter=0;" edge="1" parent="1" source="nE2y1707VEOO2TmWXQGy-12" target="nE2y1707VEOO2TmWXQGy-15">
          <mxGeometry relative="1" as="geometry">
            <Array as="points">
              <mxPoint x="350" y="355" />
              <mxPoint x="350" y="290" />
              <mxPoint x="60" y="290" />
              <mxPoint x="60" y="333" />
              <mxPoint x="79" y="333" />
            </Array>
          </mxGeometry>
        </mxCell>
        <mxCell id="nE2y1707VEOO2TmWXQGy-17" value="6" style="text;html=1;align=center;verticalAlign=middle;whiteSpace=wrap;rounded=0;" vertex="1" parent="1">
          <mxGeometry x="20" y="337.5" width="30" height="30" as="geometry" />
        </mxCell>
        <mxCell id="nE2y1707VEOO2TmWXQGy-18" value="" style="endArrow=classic;html=1;rounded=0;exitX=1;exitY=0.5;exitDx=0;exitDy=0;entryX=0;entryY=1;entryDx=0;entryDy=0;" edge="1" parent="1" source="nE2y1707VEOO2TmWXQGy-17" target="nE2y1707VEOO2TmWXQGy-15">
          <mxGeometry width="50" height="50" relative="1" as="geometry">
            <mxPoint x="180" y="420" as="sourcePoint" />
            <mxPoint x="230" y="370" as="targetPoint" />
          </mxGeometry>
        </mxCell>
        <mxCell id="nE2y1707VEOO2TmWXQGy-21" value="pc_next" style="text;html=1;align=center;verticalAlign=middle;resizable=0;points=[];autosize=1;strokeColor=none;fillColor=none;" vertex="1" parent="1">
          <mxGeometry x="180" y="320" width="70" height="30" as="geometry" />
        </mxCell>
        <mxCell id="nE2y1707VEOO2TmWXQGy-23" value="pc_next_plus_6" style="text;html=1;align=center;verticalAlign=middle;resizable=0;points=[];autosize=1;strokeColor=none;fillColor=none;" vertex="1" parent="1">
          <mxGeometry x="70" y="295" width="110" height="30" as="geometry" />
        </mxCell>
        <mxCell id="nE2y1707VEOO2TmWXQGy-27" style="edgeStyle=orthogonalEdgeStyle;rounded=0;orthogonalLoop=1;jettySize=auto;html=1;exitX=1;exitY=0.25;exitDx=0;exitDy=0;entryX=0.5;entryY=0;entryDx=0;entryDy=0;" edge="1" parent="1" source="nE2y1707VEOO2TmWXQGy-24" target="nE2y1707VEOO2TmWXQGy-3">
          <mxGeometry relative="1" as="geometry" />
        </mxCell>
        <mxCell id="nE2y1707VEOO2TmWXQGy-37" style="edgeStyle=orthogonalEdgeStyle;rounded=0;orthogonalLoop=1;jettySize=auto;html=1;exitX=1;exitY=0.5;exitDx=0;exitDy=0;entryX=0.25;entryY=1;entryDx=0;entryDy=0;" edge="1" parent="1" source="nE2y1707VEOO2TmWXQGy-24" target="nE2y1707VEOO2TmWXQGy-29">
          <mxGeometry relative="1" as="geometry">
            <Array as="points">
              <mxPoint x="580" y="335" />
            </Array>
          </mxGeometry>
        </mxCell>
        <mxCell id="nE2y1707VEOO2TmWXQGy-38" style="edgeStyle=orthogonalEdgeStyle;rounded=0;orthogonalLoop=1;jettySize=auto;html=1;exitX=1;exitY=0.5;exitDx=0;exitDy=0;entryX=0.5;entryY=1;entryDx=0;entryDy=0;" edge="1" parent="1" source="nE2y1707VEOO2TmWXQGy-24" target="nE2y1707VEOO2TmWXQGy-29">
          <mxGeometry relative="1" as="geometry" />
        </mxCell>
        <mxCell id="nE2y1707VEOO2TmWXQGy-43" style="edgeStyle=orthogonalEdgeStyle;rounded=0;orthogonalLoop=1;jettySize=auto;html=1;exitX=1;exitY=0.5;exitDx=0;exitDy=0;entryX=0.75;entryY=1;entryDx=0;entryDy=0;" edge="1" parent="1" source="nE2y1707VEOO2TmWXQGy-24" target="nE2y1707VEOO2TmWXQGy-29">
          <mxGeometry relative="1" as="geometry">
            <Array as="points">
              <mxPoint x="580" y="375" />
            </Array>
          </mxGeometry>
        </mxCell>
        <mxCell id="nE2y1707VEOO2TmWXQGy-44" style="edgeStyle=orthogonalEdgeStyle;rounded=0;orthogonalLoop=1;jettySize=auto;html=1;exitX=1;exitY=0.75;exitDx=0;exitDy=0;entryX=0;entryY=0.75;entryDx=0;entryDy=0;" edge="1" parent="1" source="nE2y1707VEOO2TmWXQGy-24" target="nE2y1707VEOO2TmWXQGy-49">
          <mxGeometry relative="1" as="geometry">
            <mxPoint x="740" y="420" as="targetPoint" />
            <Array as="points">
              <mxPoint x="580" y="435" />
            </Array>
          </mxGeometry>
        </mxCell>
        <mxCell id="nE2y1707VEOO2TmWXQGy-45" style="edgeStyle=orthogonalEdgeStyle;rounded=0;orthogonalLoop=1;jettySize=auto;html=1;exitX=0.982;exitY=0.953;exitDx=0;exitDy=0;entryX=0.75;entryY=1;entryDx=0;entryDy=0;exitPerimeter=0;" edge="1" parent="1" source="nE2y1707VEOO2TmWXQGy-24" target="nE2y1707VEOO2TmWXQGy-31">
          <mxGeometry relative="1" as="geometry">
            <Array as="points">
              <mxPoint x="670" y="459" />
              <mxPoint x="670" y="500" />
              <mxPoint x="870" y="500" />
              <mxPoint x="870" y="459" />
              <mxPoint x="923" y="459" />
            </Array>
          </mxGeometry>
        </mxCell>
        <mxCell id="nE2y1707VEOO2TmWXQGy-74" style="edgeStyle=orthogonalEdgeStyle;rounded=0;orthogonalLoop=1;jettySize=auto;html=1;exitX=1;exitY=0.75;exitDx=0;exitDy=0;entryX=0;entryY=1;entryDx=0;entryDy=0;" edge="1" parent="1" source="nE2y1707VEOO2TmWXQGy-24" target="nE2y1707VEOO2TmWXQGy-77">
          <mxGeometry relative="1" as="geometry">
            <Array as="points">
              <mxPoint x="580" y="480" />
              <mxPoint x="630" y="480" />
              <mxPoint x="630" y="530" />
              <mxPoint x="10" y="530" />
              <mxPoint x="10" y="405" />
            </Array>
          </mxGeometry>
        </mxCell>
        <mxCell id="nE2y1707VEOO2TmWXQGy-24" value="decoder" style="rounded=0;whiteSpace=wrap;html=1;" vertex="1" parent="1">
          <mxGeometry x="500" y="220" width="80" height="270" as="geometry" />
        </mxCell>
        <mxCell id="nE2y1707VEOO2TmWXQGy-28" value="command" style="text;html=1;align=center;verticalAlign=middle;resizable=0;points=[];autosize=1;strokeColor=none;fillColor=none;" vertex="1" parent="1">
          <mxGeometry x="580" y="270" width="80" height="30" as="geometry" />
        </mxCell>
        <mxCell id="nE2y1707VEOO2TmWXQGy-30" style="edgeStyle=orthogonalEdgeStyle;rounded=0;orthogonalLoop=1;jettySize=auto;html=1;exitX=0.5;exitY=0;exitDx=0;exitDy=0;entryX=0;entryY=0.25;entryDx=0;entryDy=0;" edge="1" parent="1" source="nE2y1707VEOO2TmWXQGy-29" target="nE2y1707VEOO2TmWXQGy-49">
          <mxGeometry relative="1" as="geometry" />
        </mxCell>
        <mxCell id="nE2y1707VEOO2TmWXQGy-29" value="Mux" style="shape=trapezoid;perimeter=trapezoidPerimeter;whiteSpace=wrap;html=1;fixedSize=1;direction=south;" vertex="1" parent="1">
          <mxGeometry x="660" y="315" width="40" height="80" as="geometry" />
        </mxCell>
        <mxCell id="nE2y1707VEOO2TmWXQGy-32" style="edgeStyle=orthogonalEdgeStyle;rounded=0;orthogonalLoop=1;jettySize=auto;html=1;exitX=0.5;exitY=0;exitDx=0;exitDy=0;entryX=0;entryY=0.75;entryDx=0;entryDy=0;" edge="1" parent="1" source="nE2y1707VEOO2TmWXQGy-31" target="nE2y1707VEOO2TmWXQGy-3">
          <mxGeometry relative="1" as="geometry" />
        </mxCell>
        <mxCell id="nE2y1707VEOO2TmWXQGy-31" value="Mux" style="shape=trapezoid;perimeter=trapezoidPerimeter;whiteSpace=wrap;html=1;fixedSize=1;direction=south;" vertex="1" parent="1">
          <mxGeometry x="923" y="400" width="40" height="80" as="geometry" />
        </mxCell>
        <mxCell id="nE2y1707VEOO2TmWXQGy-33" value="alu.io.a" style="text;html=1;align=center;verticalAlign=middle;resizable=0;points=[];autosize=1;strokeColor=none;fillColor=none;" vertex="1" parent="1">
          <mxGeometry x="980" y="330" width="60" height="30" as="geometry" />
        </mxCell>
        <mxCell id="nE2y1707VEOO2TmWXQGy-34" value="alu.io.b" style="text;html=1;align=center;verticalAlign=middle;resizable=0;points=[];autosize=1;strokeColor=none;fillColor=none;" vertex="1" parent="1">
          <mxGeometry x="990" y="380" width="60" height="30" as="geometry" />
        </mxCell>
        <mxCell id="nE2y1707VEOO2TmWXQGy-39" value="rs1" style="text;html=1;align=center;verticalAlign=middle;resizable=0;points=[];autosize=1;strokeColor=none;fillColor=none;" vertex="1" parent="1">
          <mxGeometry x="580" y="315" width="40" height="30" as="geometry" />
        </mxCell>
        <mxCell id="nE2y1707VEOO2TmWXQGy-41" value="rs1_i" style="text;html=1;align=center;verticalAlign=middle;resizable=0;points=[];autosize=1;strokeColor=none;fillColor=none;" vertex="1" parent="1">
          <mxGeometry x="580" y="335" width="50" height="30" as="geometry" />
        </mxCell>
        <mxCell id="nE2y1707VEOO2TmWXQGy-42" value="rs1_s" style="text;html=1;align=center;verticalAlign=middle;resizable=0;points=[];autosize=1;strokeColor=none;fillColor=none;" vertex="1" parent="1">
          <mxGeometry x="575" y="355" width="60" height="30" as="geometry" />
        </mxCell>
        <mxCell id="nE2y1707VEOO2TmWXQGy-46" value="rs2" style="text;html=1;align=center;verticalAlign=middle;resizable=0;points=[];autosize=1;strokeColor=none;fillColor=none;" vertex="1" parent="1">
          <mxGeometry x="580" y="410" width="40" height="30" as="geometry" />
        </mxCell>
        <mxCell id="nE2y1707VEOO2TmWXQGy-47" value="imm" style="text;html=1;align=center;verticalAlign=middle;resizable=0;points=[];autosize=1;strokeColor=none;fillColor=none;" vertex="1" parent="1">
          <mxGeometry x="575" y="440" width="50" height="30" as="geometry" />
        </mxCell>
        <mxCell id="nE2y1707VEOO2TmWXQGy-48" value="instr" style="text;html=1;align=center;verticalAlign=middle;resizable=0;points=[];autosize=1;strokeColor=none;fillColor=none;" vertex="1" parent="1">
          <mxGeometry x="435" y="335" width="50" height="30" as="geometry" />
        </mxCell>
        <mxCell id="nE2y1707VEOO2TmWXQGy-51" style="edgeStyle=orthogonalEdgeStyle;rounded=0;orthogonalLoop=1;jettySize=auto;html=1;exitX=1;exitY=0.25;exitDx=0;exitDy=0;entryX=0;entryY=0.25;entryDx=0;entryDy=0;" edge="1" parent="1" source="nE2y1707VEOO2TmWXQGy-49" target="nE2y1707VEOO2TmWXQGy-3">
          <mxGeometry relative="1" as="geometry" />
        </mxCell>
        <mxCell id="nE2y1707VEOO2TmWXQGy-52" style="edgeStyle=orthogonalEdgeStyle;rounded=0;orthogonalLoop=1;jettySize=auto;html=1;exitX=1;exitY=0.75;exitDx=0;exitDy=0;entryX=0.25;entryY=1;entryDx=0;entryDy=0;" edge="1" parent="1" source="nE2y1707VEOO2TmWXQGy-49" target="nE2y1707VEOO2TmWXQGy-31">
          <mxGeometry relative="1" as="geometry">
            <Array as="points">
              <mxPoint x="850" y="435" />
              <mxPoint x="850" y="420" />
            </Array>
          </mxGeometry>
        </mxCell>
        <mxCell id="nE2y1707VEOO2TmWXQGy-54" style="edgeStyle=orthogonalEdgeStyle;rounded=0;orthogonalLoop=1;jettySize=auto;html=1;exitX=1;exitY=0.75;exitDx=0;exitDy=0;entryX=0;entryY=0.75;entryDx=0;entryDy=0;" edge="1" parent="1" source="nE2y1707VEOO2TmWXQGy-49" target="nE2y1707VEOO2TmWXQGy-10">
          <mxGeometry relative="1" as="geometry">
            <Array as="points">
              <mxPoint x="850" y="435" />
              <mxPoint x="850" y="560" />
              <mxPoint x="1220" y="560" />
              <mxPoint x="1220" y="376" />
            </Array>
          </mxGeometry>
        </mxCell>
        <mxCell id="nE2y1707VEOO2TmWXQGy-68" style="edgeStyle=orthogonalEdgeStyle;rounded=0;orthogonalLoop=1;jettySize=auto;html=1;exitX=1;exitY=0.75;exitDx=0;exitDy=0;entryX=0.5;entryY=0;entryDx=0;entryDy=0;" edge="1" parent="1" source="nE2y1707VEOO2TmWXQGy-49" target="nE2y1707VEOO2TmWXQGy-6">
          <mxGeometry relative="1" as="geometry">
            <Array as="points">
              <mxPoint x="850" y="435" />
              <mxPoint x="850" y="560" />
              <mxPoint x="1220" y="560" />
              <mxPoint x="1220" y="510" />
              <mxPoint x="1280" y="510" />
            </Array>
          </mxGeometry>
        </mxCell>
        <mxCell id="nE2y1707VEOO2TmWXQGy-49" value="regfile" style="rounded=0;whiteSpace=wrap;html=1;" vertex="1" parent="1">
          <mxGeometry x="740" y="315" width="80" height="160" as="geometry" />
        </mxCell>
        <mxCell id="nE2y1707VEOO2TmWXQGy-58" style="edgeStyle=orthogonalEdgeStyle;rounded=0;orthogonalLoop=1;jettySize=auto;html=1;exitX=0.5;exitY=0;exitDx=0;exitDy=0;entryX=0.5;entryY=0;entryDx=0;entryDy=0;" edge="1" parent="1" source="nE2y1707VEOO2TmWXQGy-55" target="nE2y1707VEOO2TmWXQGy-49">
          <mxGeometry relative="1" as="geometry">
            <Array as="points">
              <mxPoint x="1440" y="395" />
              <mxPoint x="1440" y="190" />
              <mxPoint x="780" y="190" />
            </Array>
          </mxGeometry>
        </mxCell>
        <mxCell id="nE2y1707VEOO2TmWXQGy-55" value="Mux" style="shape=trapezoid;perimeter=trapezoidPerimeter;whiteSpace=wrap;html=1;fixedSize=1;direction=south;" vertex="1" parent="1">
          <mxGeometry x="1390" y="355" width="40" height="80" as="geometry" />
        </mxCell>
        <mxCell id="nE2y1707VEOO2TmWXQGy-59" value="alu.io.out" style="text;html=1;align=center;verticalAlign=middle;resizable=0;points=[];autosize=1;strokeColor=none;fillColor=none;" vertex="1" parent="1">
          <mxGeometry x="1116" y="355" width="70" height="30" as="geometry" />
        </mxCell>
        <mxCell id="nE2y1707VEOO2TmWXQGy-60" value="regfile(rd)" style="text;html=1;align=center;verticalAlign=middle;resizable=0;points=[];autosize=1;strokeColor=none;fillColor=none;" vertex="1" parent="1">
          <mxGeometry x="1360" y="160" width="80" height="30" as="geometry" />
        </mxCell>
        <mxCell id="nE2y1707VEOO2TmWXQGy-61" value="dmem_read_data" style="text;html=1;align=center;verticalAlign=middle;resizable=0;points=[];autosize=1;strokeColor=none;fillColor=none;" vertex="1" parent="1">
          <mxGeometry x="1300" y="327.5" width="120" height="30" as="geometry" />
        </mxCell>
        <mxCell id="nE2y1707VEOO2TmWXQGy-62" value="regfile(rs1*)" style="text;html=1;align=center;verticalAlign=middle;resizable=0;points=[];autosize=1;strokeColor=none;fillColor=none;" vertex="1" parent="1">
          <mxGeometry x="827" y="330" width="90" height="30" as="geometry" />
        </mxCell>
        <mxCell id="nE2y1707VEOO2TmWXQGy-63" value="regfile(rs2)" style="text;html=1;align=center;verticalAlign=middle;resizable=0;points=[];autosize=1;strokeColor=none;fillColor=none;" vertex="1" parent="1">
          <mxGeometry x="838" y="390" width="80" height="30" as="geometry" />
        </mxCell>
        <mxCell id="nE2y1707VEOO2TmWXQGy-64" value="regfile(rs2)" style="text;html=1;align=center;verticalAlign=middle;resizable=0;points=[];autosize=1;strokeColor=none;fillColor=none;" vertex="1" parent="1">
          <mxGeometry x="1105" y="530" width="80" height="30" as="geometry" />
        </mxCell>
        <mxCell id="nE2y1707VEOO2TmWXQGy-69" value="ioBus.io.din.bits" style="text;html=1;align=center;verticalAlign=middle;resizable=0;points=[];autosize=1;strokeColor=none;fillColor=none;" vertex="1" parent="1">
          <mxGeometry x="1340" y="510" width="110" height="30" as="geometry" />
        </mxCell>
        <mxCell id="nE2y1707VEOO2TmWXQGy-72" value="alu.io.zero" style="text;html=1;align=center;verticalAlign=middle;resizable=0;points=[];autosize=1;strokeColor=none;fillColor=none;" vertex="1" parent="1">
          <mxGeometry x="495" y="80" width="80" height="30" as="geometry" />
        </mxCell>
        <mxCell id="nE2y1707VEOO2TmWXQGy-75" value="imm_b_sext" style="text;html=1;align=center;verticalAlign=middle;resizable=0;points=[];autosize=1;strokeColor=none;fillColor=none;" vertex="1" parent="1">
          <mxGeometry x="520" y="500" width="90" height="30" as="geometry" />
        </mxCell>
        <mxCell id="nE2y1707VEOO2TmWXQGy-79" style="edgeStyle=orthogonalEdgeStyle;rounded=0;orthogonalLoop=1;jettySize=auto;html=1;exitX=1;exitY=0.5;exitDx=0;exitDy=0;entryX=0.5;entryY=1;entryDx=0;entryDy=0;" edge="1" parent="1" source="nE2y1707VEOO2TmWXQGy-77" target="nE2y1707VEOO2TmWXQGy-14">
          <mxGeometry relative="1" as="geometry" />
        </mxCell>
        <mxCell id="nE2y1707VEOO2TmWXQGy-77" value="&lt;font style=&quot;font-size: 29px;&quot;&gt;+&lt;/font&gt;" style="ellipse;whiteSpace=wrap;html=1;aspect=fixed;" vertex="1" parent="1">
          <mxGeometry x="45" y="375" width="35" height="35" as="geometry" />
        </mxCell>
        <mxCell id="nE2y1707VEOO2TmWXQGy-81" value="alu.io.out" style="text;html=1;align=center;verticalAlign=middle;resizable=0;points=[];autosize=1;strokeColor=none;fillColor=none;" vertex="1" parent="1">
          <mxGeometry x="125" y="555" width="70" height="30" as="geometry" />
        </mxCell>
      </root>
    </mxGraphModel>
  </diagram>
</mxfile>
